<svg xmlns="http://www.w3.org/2000/svg" id="svg20" viewBox="0 0 15 15">
    <path d="M9.13 6.5H2.87a.5.5 0 0 1 0-1h6.26a.5.5 0 0 1 0 1z" fill="#979797"/>
    <path d="M9.13 8.84H2.87a.5.5 0 1 1 0-1h6.26a.5.5 0 0 1 0 1z" fill="#979797"/>
    <path d="M4.88 11.14h-2a.5.5 0 0 1 0-1h2a.5.5 0 0 1 0 1z" fill="#979797"/>
    <path d="M13.58 12H11.5a.5.5 0 0 1 0-1h2.08a.42.42 0 0 0 .42-.42V1.42a.42.42 0 0 0-.42-.42H4.42a.42.42 0 0 0-.42.42V3.5a.5.5 0 0 1-1 0V1.42A1.42 1.42 0 0 1 4.42 0h9.17A1.42 1.42 0 0 1 15 1.42v9.17A1.42 1.42 0 0 1 13.58 12z" fill="#979797"/>
    <path d="M10.58 15H1.42A1.42 1.42 0 0 1 0 13.58V4.42A1.42 1.42 0 0 1 1.42 3h9.17A1.42 1.42 0 0 1 12 4.42v9.17A1.42 1.42 0 0 1 10.58 15zM1.42 4a.42.42 0 0 0-.42.42v9.17a.42.42 0 0 0 .42.42h9.17a.42.42 0 0 0 .42-.42V4.42a.42.42 0 0 0-.43-.42z" fill="#979797"/>
</svg>